<mxfile host="Electron" modified="2023-10-19T17:59:11.698Z" agent="Mozilla/5.0 (Windows NT 10.0; Win64; x64) AppleWebKit/537.36 (KHTML, like Gecko) draw.io/22.0.2 Chrome/114.0.5735.289 Electron/25.8.4 Safari/537.36" etag="8lBpmnxFUGLb_GNKQkS9" version="22.0.2" type="device">
  <diagram name="Page-1" id="ZvJGDT-micqH3S-8s01A">
    <mxGraphModel dx="449" dy="365" grid="1" gridSize="10" guides="1" tooltips="1" connect="1" arrows="1" fold="1" page="1" pageScale="1" pageWidth="850" pageHeight="1100" math="0" shadow="0">
      <root>
        <mxCell id="0" />
        <mxCell id="1" parent="0" />
        <mxCell id="sg1L3XCrZpDp5dMWrPWX-2" value="certif" style="ellipse;whiteSpace=wrap;html=1;align=center;" vertex="1" parent="1">
          <mxGeometry x="160" y="10" width="120" height="40" as="geometry" />
        </mxCell>
        <mxCell id="sg1L3XCrZpDp5dMWrPWX-12" value="" style="edgeStyle=orthogonalEdgeStyle;rounded=0;orthogonalLoop=1;jettySize=auto;html=1;" edge="1" parent="1" source="sg1L3XCrZpDp5dMWrPWX-7" target="sg1L3XCrZpDp5dMWrPWX-8">
          <mxGeometry relative="1" as="geometry" />
        </mxCell>
        <mxCell id="sg1L3XCrZpDp5dMWrPWX-3" value="" style="shape=rhombus;perimeter=rhombusPerimeter;whiteSpace=wrap;html=1;align=center;" vertex="1" parent="1">
          <mxGeometry x="195" y="100" width="50" height="90" as="geometry" />
        </mxCell>
        <mxCell id="sg1L3XCrZpDp5dMWrPWX-4" value="" style="endArrow=classic;html=1;rounded=0;entryX=0.5;entryY=0;entryDx=0;entryDy=0;exitX=0.5;exitY=1;exitDx=0;exitDy=0;" edge="1" parent="1" source="sg1L3XCrZpDp5dMWrPWX-2" target="sg1L3XCrZpDp5dMWrPWX-3">
          <mxGeometry width="50" height="50" relative="1" as="geometry">
            <mxPoint x="230" y="220" as="sourcePoint" />
            <mxPoint x="280" y="170" as="targetPoint" />
          </mxGeometry>
        </mxCell>
        <mxCell id="sg1L3XCrZpDp5dMWrPWX-6" value="back to certif" style="ellipse;whiteSpace=wrap;html=1;align=center;fontStyle=4;" vertex="1" parent="1">
          <mxGeometry x="30" y="120" width="90" height="35" as="geometry" />
        </mxCell>
        <mxCell id="sg1L3XCrZpDp5dMWrPWX-8" value="" style="shape=rhombus;perimeter=rhombusPerimeter;whiteSpace=wrap;html=1;align=center;" vertex="1" parent="1">
          <mxGeometry x="190" y="290" width="60" height="80" as="geometry" />
        </mxCell>
        <mxCell id="sg1L3XCrZpDp5dMWrPWX-10" value="give back to pepar" style="ellipse;whiteSpace=wrap;html=1;align=center;" vertex="1" parent="1">
          <mxGeometry x="180" y="390" width="100" height="40" as="geometry" />
        </mxCell>
        <mxCell id="sg1L3XCrZpDp5dMWrPWX-11" value="back to doc" style="ellipse;whiteSpace=wrap;html=1;align=center;" vertex="1" parent="1">
          <mxGeometry x="10" y="490" width="100" height="40" as="geometry" />
        </mxCell>
        <mxCell id="sg1L3XCrZpDp5dMWrPWX-13" value="" style="edgeStyle=orthogonalEdgeStyle;rounded=0;orthogonalLoop=1;jettySize=auto;html=1;" edge="1" parent="1" source="sg1L3XCrZpDp5dMWrPWX-3" target="sg1L3XCrZpDp5dMWrPWX-7">
          <mxGeometry relative="1" as="geometry">
            <mxPoint x="220" y="190" as="sourcePoint" />
            <mxPoint x="220" y="290" as="targetPoint" />
          </mxGeometry>
        </mxCell>
        <mxCell id="sg1L3XCrZpDp5dMWrPWX-7" value="doc check" style="ellipse;whiteSpace=wrap;html=1;align=center;" vertex="1" parent="1">
          <mxGeometry x="170" y="230" width="100" height="40" as="geometry" />
        </mxCell>
        <mxCell id="sg1L3XCrZpDp5dMWrPWX-14" value="" style="edgeStyle=orthogonalEdgeStyle;rounded=0;orthogonalLoop=1;jettySize=auto;html=1;" edge="1" parent="1">
          <mxGeometry relative="1" as="geometry">
            <mxPoint x="220" y="370" as="sourcePoint" />
            <mxPoint x="220" y="390" as="targetPoint" />
          </mxGeometry>
        </mxCell>
        <mxCell id="sg1L3XCrZpDp5dMWrPWX-15" value="" style="endArrow=classic;html=1;rounded=0;entryX=0.416;entryY=0.025;entryDx=0;entryDy=0;entryPerimeter=0;" edge="1" parent="1" target="sg1L3XCrZpDp5dMWrPWX-11">
          <mxGeometry width="50" height="50" relative="1" as="geometry">
            <mxPoint x="190" y="330" as="sourcePoint" />
            <mxPoint x="280" y="290" as="targetPoint" />
            <Array as="points">
              <mxPoint x="190" y="330" />
              <mxPoint x="80" y="340" />
            </Array>
          </mxGeometry>
        </mxCell>
        <mxCell id="sg1L3XCrZpDp5dMWrPWX-45" value=" not valid" style="edgeLabel;html=1;align=center;verticalAlign=middle;resizable=0;points=[];" vertex="1" connectable="0" parent="sg1L3XCrZpDp5dMWrPWX-15">
          <mxGeometry x="-0.2957" y="-4" relative="1" as="geometry">
            <mxPoint y="-4" as="offset" />
          </mxGeometry>
        </mxCell>
        <mxCell id="sg1L3XCrZpDp5dMWrPWX-16" value="@" style="ellipse;shape=cloud;whiteSpace=wrap;html=1;align=center;" vertex="1" parent="1">
          <mxGeometry x="20" y="310" width="20" height="20" as="geometry" />
        </mxCell>
        <mxCell id="sg1L3XCrZpDp5dMWrPWX-17" value="" style="endArrow=classic;html=1;rounded=0;exitX=0;exitY=0;exitDx=0;exitDy=0;entryX=0.55;entryY=0.95;entryDx=0;entryDy=0;entryPerimeter=0;" edge="1" parent="1" source="sg1L3XCrZpDp5dMWrPWX-11" target="sg1L3XCrZpDp5dMWrPWX-16">
          <mxGeometry width="50" height="50" relative="1" as="geometry">
            <mxPoint x="40" y="370" as="sourcePoint" />
            <mxPoint x="40" y="340" as="targetPoint" />
          </mxGeometry>
        </mxCell>
        <mxCell id="sg1L3XCrZpDp5dMWrPWX-18" value="" style="endArrow=classic;html=1;rounded=0;exitX=0;exitY=0.5;exitDx=0;exitDy=0;entryX=1;entryY=0.5;entryDx=0;entryDy=0;" edge="1" parent="1" source="sg1L3XCrZpDp5dMWrPWX-3" target="sg1L3XCrZpDp5dMWrPWX-6">
          <mxGeometry width="50" height="50" relative="1" as="geometry">
            <mxPoint x="190" y="150" as="sourcePoint" />
            <mxPoint x="130" y="140" as="targetPoint" />
          </mxGeometry>
        </mxCell>
        <mxCell id="sg1L3XCrZpDp5dMWrPWX-19" value="" style="endArrow=classic;html=1;rounded=0;exitX=0;exitY=1;exitDx=0;exitDy=0;" edge="1" parent="1" source="sg1L3XCrZpDp5dMWrPWX-6">
          <mxGeometry width="50" height="50" relative="1" as="geometry">
            <mxPoint x="70" y="170" as="sourcePoint" />
            <mxPoint x="30" y="310" as="targetPoint" />
          </mxGeometry>
        </mxCell>
        <mxCell id="sg1L3XCrZpDp5dMWrPWX-20" value="free&amp;nbsp;" style="ellipse;whiteSpace=wrap;html=1;align=center;" vertex="1" parent="1">
          <mxGeometry x="325" y="30" width="100" height="40" as="geometry" />
        </mxCell>
        <mxCell id="sg1L3XCrZpDp5dMWrPWX-21" value="asked pen" style="ellipse;whiteSpace=wrap;html=1;align=center;" vertex="1" parent="1">
          <mxGeometry x="325" y="100" width="100" height="40" as="geometry" />
        </mxCell>
        <mxCell id="sg1L3XCrZpDp5dMWrPWX-22" value="vow" style="ellipse;whiteSpace=wrap;html=1;align=center;" vertex="1" parent="1">
          <mxGeometry x="325" y="160" width="100" height="40" as="geometry" />
        </mxCell>
        <mxCell id="sg1L3XCrZpDp5dMWrPWX-23" value="insert pepar" style="ellipse;whiteSpace=wrap;html=1;align=center;" vertex="1" parent="1">
          <mxGeometry x="330" y="230" width="100" height="30" as="geometry" />
        </mxCell>
        <mxCell id="sg1L3XCrZpDp5dMWrPWX-25" value="give back pen" style="ellipse;whiteSpace=wrap;html=1;align=center;" vertex="1" parent="1">
          <mxGeometry x="340" y="280" width="100" height="40" as="geometry" />
        </mxCell>
        <mxCell id="sg1L3XCrZpDp5dMWrPWX-26" value="" style="endArrow=classic;html=1;rounded=0;entryX=0.359;entryY=-0.118;entryDx=0;entryDy=0;entryPerimeter=0;" edge="1" parent="1" target="sg1L3XCrZpDp5dMWrPWX-21">
          <mxGeometry width="50" height="50" relative="1" as="geometry">
            <mxPoint x="360" y="70" as="sourcePoint" />
            <mxPoint x="360" y="90" as="targetPoint" />
            <Array as="points" />
          </mxGeometry>
        </mxCell>
        <mxCell id="sg1L3XCrZpDp5dMWrPWX-27" value="" style="endArrow=classic;html=1;rounded=0;exitX=0.423;exitY=1.043;exitDx=0;exitDy=0;exitPerimeter=0;" edge="1" parent="1" source="sg1L3XCrZpDp5dMWrPWX-21">
          <mxGeometry width="50" height="50" relative="1" as="geometry">
            <mxPoint x="370" y="150" as="sourcePoint" />
            <mxPoint x="367" y="160" as="targetPoint" />
          </mxGeometry>
        </mxCell>
        <mxCell id="sg1L3XCrZpDp5dMWrPWX-28" value="" style="endArrow=classic;html=1;rounded=0;exitX=0.5;exitY=1;exitDx=0;exitDy=0;" edge="1" parent="1" source="sg1L3XCrZpDp5dMWrPWX-22">
          <mxGeometry width="50" height="50" relative="1" as="geometry">
            <mxPoint x="380" y="210" as="sourcePoint" />
            <mxPoint x="380" y="230" as="targetPoint" />
          </mxGeometry>
        </mxCell>
        <mxCell id="sg1L3XCrZpDp5dMWrPWX-31" value="" style="endArrow=classic;html=1;rounded=0;exitX=0.5;exitY=1;exitDx=0;exitDy=0;" edge="1" parent="1" source="sg1L3XCrZpDp5dMWrPWX-23">
          <mxGeometry width="50" height="50" relative="1" as="geometry">
            <mxPoint x="380" y="270" as="sourcePoint" />
            <mxPoint x="380" y="280" as="targetPoint" />
          </mxGeometry>
        </mxCell>
        <mxCell id="sg1L3XCrZpDp5dMWrPWX-34" value="" style="edgeStyle=orthogonalEdgeStyle;rounded=0;orthogonalLoop=1;jettySize=auto;html=1;" edge="1" parent="1" source="sg1L3XCrZpDp5dMWrPWX-32" target="sg1L3XCrZpDp5dMWrPWX-33">
          <mxGeometry relative="1" as="geometry" />
        </mxCell>
        <mxCell id="sg1L3XCrZpDp5dMWrPWX-32" value="registy" style="ellipse;whiteSpace=wrap;html=1;align=center;" vertex="1" parent="1">
          <mxGeometry x="510" y="70" width="100" height="40" as="geometry" />
        </mxCell>
        <mxCell id="sg1L3XCrZpDp5dMWrPWX-33" value="print card" style="ellipse;whiteSpace=wrap;html=1;align=center;" vertex="1" parent="1">
          <mxGeometry x="520" y="150" width="100" height="40" as="geometry" />
        </mxCell>
        <mxCell id="sg1L3XCrZpDp5dMWrPWX-37" value="" style="endArrow=none;html=1;rounded=0;" edge="1" parent="1">
          <mxGeometry relative="1" as="geometry">
            <mxPoint x="470" y="10" as="sourcePoint" />
            <mxPoint x="510" y="10" as="targetPoint" />
          </mxGeometry>
        </mxCell>
        <mxCell id="sg1L3XCrZpDp5dMWrPWX-39" value="" style="endArrow=classic;html=1;rounded=0;entryX=0.95;entryY=0.25;entryDx=0;entryDy=0;entryPerimeter=0;" edge="1" parent="1" target="sg1L3XCrZpDp5dMWrPWX-20">
          <mxGeometry width="50" height="50" relative="1" as="geometry">
            <mxPoint x="480" y="10" as="sourcePoint" />
            <mxPoint x="440" y="90" as="targetPoint" />
          </mxGeometry>
        </mxCell>
        <mxCell id="sg1L3XCrZpDp5dMWrPWX-40" value="" style="endArrow=classic;html=1;rounded=0;entryX=0.3;entryY=0;entryDx=0;entryDy=0;entryPerimeter=0;" edge="1" parent="1" target="sg1L3XCrZpDp5dMWrPWX-32">
          <mxGeometry width="50" height="50" relative="1" as="geometry">
            <mxPoint x="500" y="10" as="sourcePoint" />
            <mxPoint x="440" y="90" as="targetPoint" />
          </mxGeometry>
        </mxCell>
        <mxCell id="sg1L3XCrZpDp5dMWrPWX-42" value="" style="endArrow=none;html=1;rounded=0;" edge="1" parent="1">
          <mxGeometry width="50" height="50" relative="1" as="geometry">
            <mxPoint x="190" y="480" as="sourcePoint" />
            <mxPoint x="190" y="530" as="targetPoint" />
          </mxGeometry>
        </mxCell>
        <mxCell id="sg1L3XCrZpDp5dMWrPWX-43" value="" style="endArrow=classic;html=1;rounded=0;entryX=1;entryY=0.5;entryDx=0;entryDy=0;" edge="1" parent="1" target="sg1L3XCrZpDp5dMWrPWX-11">
          <mxGeometry width="50" height="50" relative="1" as="geometry">
            <mxPoint x="380" y="330" as="sourcePoint" />
            <mxPoint x="190" y="510" as="targetPoint" />
            <Array as="points">
              <mxPoint x="380" y="320" />
              <mxPoint x="350" y="500" />
            </Array>
          </mxGeometry>
        </mxCell>
        <mxCell id="sg1L3XCrZpDp5dMWrPWX-44" value="" style="endArrow=classic;html=1;rounded=0;exitX=0.5;exitY=1;exitDx=0;exitDy=0;" edge="1" parent="1" source="sg1L3XCrZpDp5dMWrPWX-10">
          <mxGeometry width="50" height="50" relative="1" as="geometry">
            <mxPoint x="140" y="440" as="sourcePoint" />
            <mxPoint x="190" y="510" as="targetPoint" />
          </mxGeometry>
        </mxCell>
        <mxCell id="sg1L3XCrZpDp5dMWrPWX-46" value="electo" style="text;whiteSpace=wrap;html=1;" vertex="1" parent="1">
          <mxGeometry x="80" y="30" width="70" height="40" as="geometry" />
        </mxCell>
        <mxCell id="sg1L3XCrZpDp5dMWrPWX-47" value="" style="endArrow=classic;html=1;rounded=0;entryX=0;entryY=0.5;entryDx=0;entryDy=0;exitX=0;exitY=0;exitDx=0;exitDy=0;" edge="1" parent="1" source="sg1L3XCrZpDp5dMWrPWX-46" target="sg1L3XCrZpDp5dMWrPWX-2">
          <mxGeometry width="50" height="50" relative="1" as="geometry">
            <mxPoint x="80" y="40" as="sourcePoint" />
            <mxPoint x="250" y="100" as="targetPoint" />
          </mxGeometry>
        </mxCell>
        <mxCell id="sg1L3XCrZpDp5dMWrPWX-48" value="right number&amp;nbsp;" style="text;html=1;align=center;verticalAlign=middle;resizable=0;points=[];autosize=1;strokeColor=none;fillColor=none;" vertex="1" parent="1">
          <mxGeometry x="185" y="58" width="90" height="30" as="geometry" />
        </mxCell>
      </root>
    </mxGraphModel>
  </diagram>
</mxfile>
